<?xml version="1.0" standalone="no"?>
<!DOCTYPE svg PUBLIC "-//W3C//DTD SVG 20010904//EN"
 "http://www.w3.org/TR/2001/REC-SVG-20010904/DTD/svg10.dtd">
<svg version="1.0" xmlns="http://www.w3.org/2000/svg"
 width="3456.000000pt" height="4608.000000pt" viewBox="0 0 3456.000000 4608.000000"
 preserveAspectRatio="xMidYMid meet">

<g transform="translate(0.000000,4608.000000) scale(0.100000,-0.100000)"
fill="#000000" stroke="none">
<path d="M11765 44280 c-17 -5 -92 -72 -180 -159 -149 -148 -214 -196 -297
-215 -15 -3 -44 -17 -64 -31 -20 -14 -45 -25 -54 -25 -9 0 -34 -13 -55 -30
-21 -16 -44 -30 -51 -30 -7 0 -29 -13 -47 -30 -19 -16 -39 -30 -45 -30 -11 0
-90 -62 -132 -105 -14 -14 -30 -25 -35 -25 -6 0 -21 -11 -35 -24 -73 -71 -323
-325 -345 -351 -14 -16 -51 -62 -84 -100 -32 -39 -66 -85 -75 -102 -9 -18 -22
-36 -30 -40 -7 -4 -21 -22 -30 -40 -9 -18 -22 -36 -29 -40 -19 -12 -94 -115
-101 -140 -4 -11 -13 -24 -21 -27 -8 -3 -23 -22 -34 -44 -11 -21 -27 -45 -36
-52 -9 -8 -24 -31 -32 -52 -8 -21 -19 -38 -24 -38 -5 0 -18 -19 -30 -42 -12
-24 -32 -56 -45 -71 -13 -16 -24 -33 -24 -39 0 -5 -11 -23 -25 -40 -13 -16
-29 -46 -35 -67 -6 -22 -21 -46 -34 -54 -13 -9 -27 -28 -30 -43 -4 -15 -18
-41 -32 -59 -13 -17 -24 -39 -24 -48 0 -8 -11 -29 -25 -45 -14 -17 -32 -47
-41 -69 -9 -21 -24 -47 -34 -58 -10 -11 -23 -38 -30 -60 -7 -22 -20 -49 -30
-60 -10 -11 -23 -38 -30 -60 -7 -22 -21 -50 -32 -61 -11 -12 -26 -48 -35 -80
-8 -33 -21 -66 -29 -75 -8 -9 -20 -34 -26 -55 -5 -22 -19 -52 -30 -67 -11 -16
-27 -53 -35 -84 -8 -30 -23 -67 -34 -82 -10 -14 -23 -47 -27 -73 -5 -25 -18
-58 -30 -73 -11 -14 -26 -52 -33 -83 -6 -31 -22 -77 -34 -102 -13 -25 -27 -65
-30 -90 -4 -25 -18 -65 -31 -90 -12 -25 -28 -73 -34 -108 -6 -34 -20 -77 -30
-95 -11 -18 -24 -62 -29 -98 -5 -36 -19 -85 -30 -108 -12 -23 -26 -78 -32
-124 -5 -45 -19 -100 -30 -121 -13 -24 -24 -75 -30 -128 -9 -94 -19 -139 -42
-203 -8 -22 -18 -83 -22 -135 -4 -52 -16 -126 -26 -165 -12 -42 -24 -132 -30
-225 -5 -85 -19 -231 -29 -325 -11 -93 -20 -225 -20 -292 0 -144 -7 -159 -74
-147 -22 3 -62 17 -87 30 -26 13 -77 28 -113 34 -37 6 -90 20 -119 31 -134 53
-853 53 -969 0 -25 -11 -82 -25 -127 -30 -55 -7 -96 -19 -125 -36 -23 -14 -54
-25 -68 -25 -13 0 -47 -11 -74 -25 -27 -14 -72 -32 -100 -40 -28 -8 -57 -21
-63 -29 -7 -8 -34 -22 -60 -31 -26 -8 -63 -27 -81 -40 -19 -14 -39 -25 -45
-25 -6 0 -21 -11 -34 -24 -12 -12 -39 -29 -61 -36 -22 -7 -47 -24 -55 -37 -9
-12 -22 -23 -29 -23 -8 0 -32 -15 -55 -32 -22 -18 -59 -46 -82 -63 -22 -16
-58 -46 -78 -65 -21 -19 -57 -51 -81 -70 -24 -19 -87 -77 -139 -128 -53 -51
-102 -96 -108 -100 -7 -4 -19 -25 -28 -46 -14 -32 -14 -40 -3 -47 23 -15 38
-10 50 16 6 14 15 25 19 25 5 0 24 16 43 35 20 19 40 35 45 35 5 0 12 8 15 18
4 9 29 35 57 57 28 22 63 52 77 68 15 15 32 27 39 27 7 0 20 11 29 25 9 14 35
33 58 43 22 11 47 26 55 35 7 10 20 17 28 17 8 0 25 11 39 25 14 14 41 32 60
40 20 8 49 26 66 40 16 14 35 25 42 25 7 0 21 9 30 19 10 11 37 26 60 34 22 8
58 26 78 39 21 14 54 29 75 33 21 4 56 17 78 30 22 13 56 26 75 30 19 4 49 15
65 26 17 10 69 27 115 37 47 10 99 26 115 34 17 9 78 21 137 27 59 7 142 21
185 32 69 18 100 20 273 16 145 -3 210 -8 255 -21 33 -10 100 -22 148 -27 49
-5 109 -18 135 -29 26 -11 77 -26 114 -33 36 -8 79 -24 93 -36 15 -11 35 -21
45 -21 33 0 49 -33 58 -123 9 -99 1 -117 -54 -117 -35 0 -143 25 -199 45 -22
8 -101 19 -175 25 -74 6 -169 15 -210 20 -113 14 -328 12 -480 -5 -74 -8 -180
-18 -235 -24 -59 -5 -118 -17 -145 -29 -25 -11 -76 -23 -115 -27 -40 -5 -89
-17 -116 -31 -25 -12 -74 -28 -110 -34 -35 -6 -73 -20 -84 -30 -11 -11 -40
-22 -65 -26 -25 -3 -61 -17 -82 -31 -20 -13 -57 -31 -83 -38 -25 -8 -57 -23
-70 -33 -14 -11 -49 -22 -84 -26 -34 -4 -69 -15 -83 -26 -13 -10 -42 -22 -64
-26 -63 -11 -90 -30 -108 -74 -9 -23 -42 -68 -74 -100 -96 -98 -106 -115 -110
-189 -3 -57 0 -71 21 -102 50 -74 48 -133 -6 -168 -51 -33 -100 -70 -123 -91
-11 -10 -33 -24 -47 -31 -15 -7 -34 -23 -42 -36 -9 -12 -20 -23 -26 -23 -18 0
-133 -89 -204 -157 -19 -18 -37 -33 -40 -33 -4 0 -34 -27 -68 -59 -100 -96
-110 -105 -144 -126 -27 -17 -77 -61 -249 -220 -17 -16 -55 -50 -83 -75 -28
-25 -51 -49 -51 -53 0 -4 -22 -29 -49 -55 -84 -82 -242 -256 -257 -284 -7 -14
-38 -52 -69 -84 -30 -32 -55 -63 -55 -69 0 -6 -12 -22 -26 -36 -14 -13 -34
-41 -45 -61 -10 -20 -25 -41 -33 -45 -7 -4 -21 -23 -30 -40 -9 -18 -21 -33
-26 -33 -5 0 -12 -9 -15 -21 -4 -11 -20 -35 -36 -54 -16 -18 -35 -48 -43 -67
-8 -18 -24 -42 -35 -52 -12 -11 -21 -24 -21 -31 0 -6 -11 -22 -25 -35 -14 -13
-31 -42 -37 -64 -6 -23 -21 -51 -34 -63 -12 -12 -28 -39 -35 -60 -6 -21 -20
-44 -30 -51 -10 -7 -23 -32 -30 -55 -6 -23 -21 -53 -34 -67 -12 -14 -28 -41
-34 -61 -7 -20 -20 -44 -30 -53 -11 -10 -22 -32 -25 -49 -4 -18 -20 -52 -36
-76 -17 -24 -30 -51 -30 -60 0 -9 -11 -33 -25 -53 -13 -20 -29 -54 -34 -77 -5
-22 -21 -54 -35 -71 -18 -22 -26 -43 -26 -70 0 -27 -8 -48 -25 -68 -15 -18
-30 -54 -37 -89 -6 -33 -20 -69 -33 -83 -14 -15 -25 -45 -30 -75 -3 -27 -17
-68 -29 -90 -13 -22 -28 -69 -34 -104 -7 -35 -18 -71 -25 -80 -20 -23 -26 -44
-37 -123 -6 -38 -19 -87 -31 -110 -11 -22 -23 -66 -26 -97 -3 -31 -14 -72 -24
-92 -18 -36 -32 -105 -44 -214 -4 -33 -15 -85 -26 -115 -11 -30 -24 -93 -29
-140 -5 -47 -21 -122 -34 -167 -13 -44 -27 -123 -31 -174 -4 -52 -16 -121 -27
-154 -14 -42 -24 -116 -33 -250 -7 -104 -20 -235 -29 -290 -48 -305 -48 -1235
-1 -1483 8 -42 19 -157 25 -256 11 -180 19 -246 45 -341 8 -27 17 -90 21 -140
3 -49 17 -132 30 -184 13 -52 28 -141 34 -199 6 -60 19 -123 30 -146 10 -23
23 -77 29 -121 6 -44 22 -112 36 -150 32 -91 32 -146 0 -200 -13 -23 -29 -73
-35 -111 -6 -38 -20 -87 -31 -108 -14 -26 -25 -81 -34 -160 -7 -67 -21 -166
-30 -221 -20 -120 -15 -388 8 -445 8 -19 18 -77 22 -129 4 -60 17 -126 35
-180 16 -47 31 -103 35 -124 3 -21 17 -59 31 -84 13 -25 24 -54 24 -63 0 -9
12 -39 26 -66 15 -27 32 -65 39 -84 12 -35 46 -91 83 -140 10 -14 28 -46 40
-72 11 -27 26 -48 31 -48 6 0 20 -18 31 -40 11 -22 25 -40 30 -40 5 0 16 -15
25 -34 23 -49 282 -305 330 -327 22 -10 46 -27 53 -38 7 -12 19 -21 27 -21 8
0 29 -13 47 -28 18 -16 48 -34 65 -40 18 -6 42 -20 54 -30 11 -11 47 -25 79
-30 64 -12 144 -62 154 -98 3 -11 19 -40 36 -65 16 -24 30 -51 30 -60 0 -9 12
-34 26 -55 15 -21 33 -56 40 -77 8 -21 25 -52 39 -69 14 -16 25 -36 25 -43 0
-7 11 -26 24 -42 13 -15 28 -44 35 -64 6 -20 21 -45 31 -54 11 -10 20 -24 20
-30 0 -7 16 -36 35 -64 19 -28 35 -57 35 -65 0 -8 11 -28 25 -44 22 -27 40
-55 96 -157 12 -22 32 -53 45 -68 13 -16 24 -34 24 -41 0 -7 11 -23 24 -36 14
-12 28 -35 31 -51 3 -15 18 -39 31 -53 l26 -25 -35 -35 c-19 -19 -48 -41 -65
-50 -50 -26 -240 -214 -259 -257 -9 -22 -27 -46 -40 -54 -13 -9 -23 -22 -23
-29 0 -8 -11 -28 -25 -44 -14 -17 -32 -46 -40 -66 -9 -20 -24 -45 -34 -55 -10
-10 -24 -42 -30 -71 -6 -29 -20 -65 -31 -81 -11 -15 -25 -53 -31 -84 -6 -31
-19 -70 -29 -88 -11 -18 -24 -64 -29 -102 -6 -39 -20 -97 -31 -130 -27 -79
-40 -268 -40 -600 0 -365 15 -626 38 -695 11 -30 22 -86 26 -125 9 -95 25
-175 42 -206 7 -15 18 -57 24 -95 6 -38 19 -80 29 -94 10 -14 23 -54 30 -90 7
-36 23 -83 36 -105 13 -22 26 -59 30 -82 4 -23 15 -54 26 -67 11 -14 26 -42
33 -63 7 -21 25 -56 40 -77 14 -21 26 -46 26 -55 0 -9 10 -32 22 -51 26 -39
55 -92 91 -163 14 -26 32 -56 41 -66 10 -11 23 -42 31 -70 7 -28 22 -62 33
-76 12 -15 26 -43 33 -63 6 -20 20 -46 29 -57 10 -11 24 -40 30 -65 6 -25 20
-54 31 -65 10 -12 24 -36 30 -55 7 -19 21 -48 33 -65 12 -16 29 -46 39 -65 16
-32 40 -72 104 -171 12 -19 28 -41 36 -49 7 -8 29 -37 47 -64 52 -77 268 -286
317 -307 24 -10 43 -23 43 -29 0 -6 20 -19 44 -30 24 -10 47 -23 50 -28 3 -6
28 -18 54 -28 26 -10 58 -26 71 -36 13 -10 49 -26 79 -34 30 -9 69 -24 86 -34
17 -10 73 -24 126 -30 52 -7 107 -19 123 -26 63 -33 495 -43 572 -14 21 8 24
5 34 -33 5 -23 13 -58 17 -77 3 -19 13 -48 22 -65 8 -16 21 -59 29 -95 7 -35
23 -80 34 -99 11 -19 24 -57 30 -84 5 -28 18 -60 28 -71 10 -12 22 -40 26 -64
4 -23 19 -66 35 -95 15 -29 30 -68 34 -88 4 -21 16 -48 26 -62 11 -14 27 -45
35 -68 9 -24 22 -50 30 -59 8 -9 21 -34 28 -56 8 -22 26 -57 41 -78 14 -21 26
-46 26 -55 0 -9 14 -36 30 -60 17 -24 30 -49 30 -56 0 -7 13 -29 30 -50 16
-20 32 -46 36 -58 4 -12 20 -38 35 -57 16 -19 29 -39 29 -46 0 -6 11 -21 25
-34 14 -13 25 -29 25 -36 0 -7 16 -31 35 -54 19 -23 35 -46 35 -50 0 -8 47
-68 95 -123 14 -15 25 -31 25 -35 0 -4 14 -23 31 -42 16 -19 47 -55 67 -79 20
-25 49 -57 64 -72 16 -15 28 -30 28 -34 0 -8 336 -340 379 -375 17 -14 59 -51
94 -82 34 -32 76 -64 92 -72 17 -8 55 -37 85 -65 30 -28 58 -51 61 -51 3 0 26
-16 50 -35 24 -19 49 -35 56 -35 7 0 27 -12 45 -28 42 -35 142 -102 152 -102
5 0 22 -12 40 -26 44 -36 134 -94 145 -94 5 0 23 -11 40 -25 16 -14 53 -32 80
-41 28 -8 51 -19 51 -25 0 -5 24 -20 54 -33 29 -13 56 -28 60 -34 3 -6 23 -16
44 -22 20 -7 54 -23 74 -37 20 -14 56 -29 80 -35 24 -5 52 -17 63 -27 11 -10
38 -24 60 -31 22 -7 50 -22 62 -33 12 -11 44 -23 71 -28 27 -4 65 -19 86 -33
20 -14 58 -28 82 -32 25 -3 57 -17 72 -29 16 -13 52 -27 89 -33 34 -6 75 -20
90 -31 15 -11 57 -25 93 -31 35 -7 76 -20 90 -30 14 -10 55 -24 90 -30 36 -6
79 -20 97 -31 17 -11 72 -26 122 -34 50 -8 107 -24 128 -34 21 -11 67 -22 103
-26 36 -4 92 -17 125 -30 33 -12 99 -28 145 -34 46 -6 88 -15 93 -20 4 -4 -20
-16 -55 -25 -35 -10 -80 -24 -101 -32 -20 -8 -92 -19 -159 -25 -68 -6 -146
-19 -177 -30 -31 -10 -107 -24 -170 -30 -62 -6 -141 -19 -175 -30 -33 -11
-114 -26 -179 -34 -64 -7 -142 -23 -171 -34 -30 -11 -95 -24 -144 -29 -159
-16 -233 -82 -249 -222 -13 -116 4 -279 42 -395 7 -22 16 -83 20 -135 4 -52
18 -139 31 -193 13 -54 28 -146 34 -205 8 -93 31 -209 45 -232 8 -14 24 -224
18 -252 -4 -20 -14 -30 -42 -39 -20 -6 -50 -22 -68 -35 -17 -13 -36 -24 -41
-24 -6 0 -29 -16 -52 -35 -23 -19 -45 -35 -49 -35 -12 0 -45 -35 -86 -94 -22
-32 -52 -73 -67 -92 -15 -19 -30 -49 -34 -67 -3 -18 -18 -54 -32 -82 -20 -41
-25 -68 -30 -160 l-5 -110 -41 -35 c-63 -53 -116 -111 -136 -151 -10 -19 -26
-41 -34 -48 -9 -8 -23 -39 -32 -70 -9 -31 -26 -72 -38 -91 -19 -32 -21 -48
-21 -215 1 -173 2 -182 27 -235 14 -30 29 -71 33 -90 4 -19 17 -53 30 -75 26
-46 24 -89 -6 -118 -11 -10 -19 -24 -19 -31 0 -7 -13 -33 -29 -57 -17 -24 -35
-66 -41 -92 -5 -26 -24 -73 -40 -104 -17 -31 -30 -64 -30 -73 0 -10 -7 -23
-15 -30 -8 -7 -23 -38 -31 -69 -9 -30 -25 -67 -36 -81 -10 -14 -25 -54 -33
-88 -8 -35 -22 -74 -31 -87 -38 -59 -56 -343 -30 -495 14 -87 61 -165 144
-243 7 -7 55 -52 106 -102 52 -49 112 -103 133 -118 21 -15 55 -41 75 -56 21
-16 59 -34 85 -41 27 -6 62 -20 79 -31 17 -10 66 -24 109 -30 43 -6 101 -20
129 -31 44 -19 77 -22 236 -26 102 -2 228 1 280 7 108 12 104 14 120 -69 6
-30 20 -75 30 -100 11 -25 25 -77 30 -117 5 -39 18 -86 29 -105 10 -18 23 -66
29 -106 6 -40 19 -90 30 -111 11 -21 25 -74 32 -117 6 -43 22 -99 34 -124 13
-25 27 -72 31 -104 4 -33 17 -83 30 -112 13 -29 26 -79 30 -111 4 -32 17 -80
30 -108 12 -27 26 -75 30 -105 4 -30 17 -77 30 -105 12 -27 28 -85 34 -129 8
-58 19 -91 43 -127 38 -59 112 -119 147 -120 93 -2 277 -20 396 -37 77 -11
210 -23 295 -26 102 -5 159 -11 167 -19 16 -15 1 -166 -21 -219 -18 -41 -36
-259 -36 -423 0 -87 -4 -126 -14 -140 -8 -11 -114 -119 -236 -240 -122 -121
-228 -233 -237 -250 -8 -16 -27 -42 -41 -57 -32 -34 -55 -146 -42 -198 5 -19
12 -51 15 -71 3 -20 16 -46 30 -59 14 -13 25 -29 25 -37 0 -35 282 -323 332
-338 12 -4 32 -15 43 -25 34 -30 167 -87 235 -99 40 -8 75 -22 93 -37 16 -13
39 -24 52 -24 13 0 48 -13 79 -30 31 -16 80 -33 109 -39 30 -5 69 -19 88 -30
19 -11 60 -24 93 -30 134 -24 196 -61 196 -117 0 -8 11 -40 24 -72 13 -31 27
-82 31 -112 4 -30 17 -75 29 -100 13 -25 26 -74 30 -109 4 -36 16 -82 27 -104
11 -21 26 -73 34 -115 7 -42 22 -97 33 -122 11 -25 25 -78 31 -119 7 -40 22
-96 35 -125 13 -28 27 -76 30 -106 4 -30 16 -73 26 -95 10 -22 26 -70 34 -108
9 -37 22 -77 30 -90 8 -12 19 -49 26 -82 7 -33 18 -70 26 -82 l14 -23 4688 0
c3844 0 4691 2 4706 13 12 9 25 48 41 123 12 60 27 120 33 134 5 14 13 70 16
125 7 104 19 171 41 240 7 23 16 95 20 160 7 135 19 239 39 335 8 36 17 101
21 145 6 69 11 84 35 110 36 38 80 166 80 232 0 51 1 52 58 95 58 44 97 80
268 246 52 50 99 92 104 92 16 0 198 188 205 212 4 13 18 34 31 48 26 28 58
149 57 215 -1 68 -31 197 -52 219 -10 12 -28 42 -38 67 -15 33 -68 94 -192
217 -94 94 -171 179 -171 189 0 33 -40 84 -78 100 -20 8 -40 20 -44 27 -9 14
-10 754 -1 860 5 66 9 79 27 87 23 10 197 34 351 50 186 19 181 18 234 60 43
34 54 50 67 97 9 31 23 66 30 77 8 12 20 70 28 130 8 61 23 130 34 155 11 25
23 74 27 110 8 70 27 159 43 200 5 14 15 77 22 140 7 63 21 137 32 165 12 31
23 93 29 165 5 63 18 144 29 180 11 36 25 113 30 172 5 58 18 145 30 194 11
48 27 164 35 258 17 193 34 253 72 262 14 4 61 -3 106 -15 105 -27 232 -28
308 -2 30 10 75 21 101 25 26 4 58 16 72 27 13 11 43 26 66 34 23 8 57 27 75
42 19 16 54 43 78 62 24 18 60 54 78 78 19 24 46 59 60 76 14 18 32 50 39 72
7 22 22 58 35 80 12 22 28 71 34 109 7 38 19 83 28 100 14 25 18 77 22 277 l6
246 27 39 c15 21 30 53 33 69 4 17 18 62 31 102 23 67 24 85 24 320 1 294 9
383 40 424 15 22 26 64 41 161 10 72 21 134 23 136 3 2 0 16 -6 31 -5 14 -16
69 -24 122 -10 72 -20 107 -39 134 -14 21 -25 42 -25 47 0 28 -149 190 -200
219 -86 48 -112 75 -135 136 -13 33 -28 87 -35 119 -7 32 -25 79 -41 103 -16
25 -29 49 -29 54 0 31 -139 170 -201 202 -25 13 -51 30 -58 39 -7 8 -27 18
-44 21 -56 11 -65 15 -71 32 -9 22 12 296 28 379 30 149 35 184 46 314 6 74
17 158 24 185 11 41 11 56 1 82 -13 31 -11 52 14 133 18 57 13 94 -23 161 -29
54 -44 69 -97 102 -62 38 -68 39 -184 47 -66 5 -167 18 -225 29 -58 12 -161
24 -230 27 -128 6 -292 26 -392 49 -98 22 -103 36 -22 60 31 9 66 23 78 30 12
8 41 21 66 30 24 8 51 22 60 30 9 8 36 21 60 30 24 9 51 22 60 29 8 8 38 23
67 34 29 11 59 27 68 36 9 8 33 20 54 26 21 5 49 19 62 29 14 10 42 26 64 35
22 9 45 23 50 30 6 7 30 23 55 35 58 28 131 71 148 88 8 7 36 23 63 34 27 12
49 26 49 31 0 5 15 15 33 23 17 7 50 27 72 44 22 16 57 43 78 58 21 15 53 40
71 56 19 15 38 27 43 27 9 0 121 86 197 152 17 15 65 54 106 87 118 93 536
514 610 615 19 26 61 75 92 109 32 34 58 65 58 69 0 4 29 41 65 83 36 42 65
83 65 91 0 8 14 26 30 41 17 14 30 31 30 37 0 6 17 32 38 58 44 56 71 92 92
123 8 12 33 48 55 80 42 60 90 142 124 211 11 22 29 49 41 59 11 10 20 23 20
30 0 7 13 30 28 51 16 22 32 53 36 69 4 17 18 44 30 60 13 17 29 48 36 70 7
22 21 49 30 60 10 11 23 40 30 65 6 25 20 57 30 71 10 15 26 54 35 88 8 33 24
75 34 93 11 18 24 59 30 92 6 32 19 72 30 90 10 17 24 63 30 102 6 39 20 91
31 116 10 24 24 86 30 137 16 143 21 148 164 166 75 9 112 18 130 33 14 11 46
23 70 26 25 4 56 16 69 26 14 11 45 28 69 39 24 10 49 26 57 35 7 9 32 25 55
36 52 26 119 73 189 135 13 11 41 32 63 47 82 55 715 687 748 747 9 15 28 40
97 121 91 106 150 185 155 205 3 13 17 31 30 40 13 8 24 22 24 29 0 8 16 33
35 56 19 23 35 48 35 56 0 8 16 37 35 65 19 28 35 57 35 64 0 7 7 18 14 25 8
6 23 33 33 58 9 26 27 61 39 79 12 18 25 49 29 70 3 21 16 48 26 59 11 12 27
47 35 78 8 31 23 71 33 88 11 18 24 58 30 88 6 31 23 78 36 105 14 26 25 61
25 76 0 16 11 58 25 94 13 36 29 101 34 143 6 42 20 104 31 136 47 130 51 764
6 870 -9 22 -23 77 -31 122 -8 46 -25 104 -39 131 -13 26 -33 65 -43 87 -32
68 -57 111 -87 149 -34 44 -31 86 9 127 69 72 95 101 95 108 0 4 27 35 60 70
32 35 62 73 66 85 6 20 15 32 83 102 14 14 34 41 45 60 12 18 44 64 73 102 29
37 61 82 73 98 12 17 39 54 61 84 21 29 39 59 39 67 0 8 11 24 25 36 14 12 25
26 25 31 0 5 16 31 35 57 19 26 35 52 35 58 0 6 11 23 24 39 13 15 31 44 41
63 10 19 24 38 31 43 7 4 18 24 25 45 6 20 22 49 35 64 12 16 26 38 29 50 4
13 18 34 30 48 13 14 28 44 34 66 6 23 18 47 26 54 8 7 26 35 40 63 41 82 79
150 96 177 9 14 22 42 28 62 7 20 19 42 26 48 8 7 20 31 26 54 6 22 21 58 34
78 14 20 30 57 36 82 6 25 20 55 30 67 11 12 24 41 31 63 6 23 20 51 31 63 11
12 23 43 28 68 5 26 18 60 30 76 12 17 28 51 35 76 8 25 22 59 33 77 11 17 25
54 32 81 6 28 20 64 30 80 9 17 23 52 30 80 7 27 22 64 34 81 12 18 25 55 28
83 3 28 17 70 30 93 14 24 28 62 31 86 4 24 17 64 31 90 13 26 27 70 30 97 4
28 17 68 30 90 12 22 28 71 34 110 7 38 21 83 31 100 10 16 24 64 31 105 7 41
21 93 32 114 10 21 23 69 28 105 5 36 20 95 33 131 13 36 29 102 35 147 5 45
17 96 26 113 8 16 22 83 31 148 8 64 24 143 34 174 12 36 23 108 29 195 6 76
17 167 26 203 31 131 37 267 32 860 -4 561 -5 588 -26 670 -12 47 -27 148 -32
225 -7 86 -18 162 -30 197 -10 32 -24 104 -30 160 -6 57 -18 121 -26 143 -24
65 -43 147 -43 187 0 21 -11 66 -24 101 -13 35 -29 94 -34 131 -6 37 -20 81
-31 99 -10 18 -24 61 -31 97 -6 36 -20 87 -31 114 -12 27 -27 74 -35 105 -8
31 -22 66 -30 78 -8 13 -22 51 -30 85 -9 34 -24 73 -34 87 -10 14 -23 50 -29
79 -6 29 -20 65 -31 80 -20 27 -43 119 -34 134 10 16 29 7 46 -20 10 -15 38
-54 62 -87 25 -33 54 -76 65 -96 11 -20 27 -39 35 -42 8 -3 17 -20 21 -37 4
-17 17 -43 29 -58 13 -15 32 -47 43 -72 11 -25 27 -51 36 -59 10 -7 17 -21 17
-31 0 -9 13 -37 29 -61 17 -24 34 -64 40 -88 5 -23 18 -53 29 -64 11 -12 23
-38 27 -57 4 -19 18 -55 30 -80 12 -25 28 -69 34 -98 6 -29 20 -70 30 -91 11
-21 27 -88 35 -150 9 -62 23 -126 32 -143 25 -48 38 -400 25 -651 -11 -197
-10 -202 9 -219 44 -36 80 11 80 105 0 21 10 75 22 120 20 72 23 106 23 282 0
170 -3 214 -22 295 -12 52 -26 135 -32 184 -6 49 -17 99 -26 112 -8 13 -22 57
-29 98 -8 41 -24 92 -35 114 -11 22 -25 61 -32 88 -6 27 -18 56 -25 65 -8 9
-22 38 -31 65 -9 27 -26 61 -38 76 -13 15 -25 42 -29 61 -3 18 -16 44 -27 56
-12 12 -25 39 -31 59 -5 20 -21 52 -35 70 -13 17 -29 46 -35 62 -5 17 -14 30
-18 30 -5 0 -20 25 -35 55 -14 30 -30 55 -36 55 -5 0 -16 15 -24 33 -8 19 -21
39 -29 46 -8 7 -27 33 -41 57 -14 24 -30 44 -35 44 -5 0 -11 8 -14 18 -4 9
-30 42 -59 73 -28 30 -64 73 -78 95 -15 22 -80 97 -145 166 -143 151 -139 147
-158 193 -9 20 -25 48 -36 62 -11 14 -25 43 -30 64 -6 21 -22 51 -35 67 -14
17 -25 35 -25 41 0 7 -10 22 -23 35 -13 13 -31 44 -41 69 -10 26 -23 50 -31
54 -7 5 -22 26 -33 49 -11 22 -27 46 -35 52 -8 7 -22 30 -32 52 -10 22 -22 40
-26 40 -5 0 -16 16 -24 36 -8 20 -27 51 -42 70 -16 19 -40 49 -55 68 -16 18
-28 38 -28 44 0 12 -89 134 -106 144 -6 4 -17 21 -24 37 -6 16 -18 32 -25 35
-8 3 -22 20 -31 38 -19 38 -190 240 -275 326 l-26 26 31 68 c17 37 39 71 49
74 9 3 22 15 28 27 7 12 18 26 26 30 8 5 22 22 32 38 10 16 53 68 97 115 43
47 85 98 93 113 7 14 25 38 40 53 14 14 41 44 59 65 18 21 43 50 57 66 34 38
48 100 42 174 -7 72 -16 93 -64 146 -62 69 -211 197 -230 197 -8 0 -19 11 -25
25 -6 13 -19 27 -29 30 -9 3 -24 16 -32 29 -9 13 -29 29 -46 36 -17 7 -31 16
-31 20 0 8 -143 114 -213 157 -16 10 -38 26 -50 37 -12 10 -38 25 -57 33 -19
9 -38 20 -41 25 -8 13 -86 59 -158 93 -30 15 -66 35 -79 46 -14 10 -32 19 -42
19 -9 0 -37 13 -61 30 -24 16 -51 30 -60 30 -9 0 -34 12 -55 27 -21 14 -63 32
-93 40 -29 8 -65 23 -80 34 -14 10 -47 23 -72 27 -26 5 -62 18 -80 29 -19 12
-60 26 -92 33 -49 10 -60 16 -68 38 -23 59 -45 182 -59 321 -6 62 -18 130 -26
150 -8 20 -22 85 -30 145 -9 60 -24 130 -34 156 -10 26 -23 82 -29 125 -6 42
-20 98 -32 124 -11 25 -25 73 -30 106 -6 33 -21 83 -33 110 -13 28 -27 73 -31
100 -3 28 -17 68 -30 90 -12 22 -26 60 -30 85 -4 25 -16 58 -27 73 -11 16 -27
53 -35 84 -8 30 -23 67 -34 82 -10 14 -23 46 -27 71 -5 25 -20 62 -35 83 -14
20 -28 55 -32 77 -4 22 -15 51 -26 64 -11 14 -26 46 -34 71 -7 26 -21 55 -29
64 -9 9 -22 35 -29 57 -8 22 -26 57 -41 78 -14 21 -26 47 -26 56 0 9 -13 34
-30 55 -16 21 -30 43 -30 50 0 6 -9 20 -20 30 -10 9 -27 38 -36 64 -10 25 -23
53 -30 61 -6 8 -21 33 -32 56 -11 22 -28 46 -36 53 -9 8 -25 33 -36 57 -10 24
-23 44 -27 44 -5 0 -15 16 -22 36 -7 19 -25 50 -40 67 -15 18 -30 39 -34 48
-3 9 -27 45 -54 79 -79 103 -101 134 -119 165 -18 32 -67 94 -109 135 -14 14
-25 30 -25 34 0 5 -15 26 -32 47 -18 21 -73 88 -123 149 -79 98 -630 660 -717
732 -18 16 -68 59 -110 98 -42 38 -81 70 -86 70 -9 0 -48 32 -101 82 -13 13
-34 30 -46 38 -12 8 -48 35 -80 60 -31 25 -70 52 -86 60 -15 8 -36 23 -46 33
-20 20 -73 58 -117 84 -16 10 -44 30 -61 46 -18 15 -37 27 -42 27 -6 0 -30 16
-54 35 -24 19 -48 35 -53 35 -4 0 -21 11 -38 25 -16 14 -35 25 -41 25 -7 0
-32 16 -56 35 -24 19 -52 35 -62 35 -10 0 -21 4 -24 10 -11 17 -159 110 -176
110 -9 0 -34 13 -55 28 -43 31 -72 48 -153 88 -30 15 -70 38 -89 51 -19 12
-42 23 -51 23 -10 0 -32 11 -51 25 -19 14 -53 30 -75 36 -22 6 -49 19 -60 30
-12 10 -36 22 -55 25 -19 4 -58 19 -86 35 -28 16 -58 29 -66 29 -9 0 -32 11
-53 25 -20 14 -60 31 -89 37 -28 7 -63 22 -78 33 -14 12 -45 25 -68 29 -24 4
-61 17 -84 30 -22 13 -66 29 -96 36 -30 7 -72 21 -92 31 -21 11 -64 25 -95 33
-32 7 -73 21 -90 30 -18 9 -64 23 -103 31 -39 8 -81 22 -93 30 -13 8 -63 22
-112 30 -49 9 -108 24 -132 35 -24 10 -76 24 -117 29 -41 6 -96 19 -124 30
-27 11 -78 23 -113 26 -35 4 -104 17 -154 30 -49 14 -143 29 -208 35 -65 6
-146 20 -180 31 -39 12 -114 23 -207 29 -184 12 -259 21 -288 31 -51 19 -227
30 -637 41 -523 13 -495 13 -1104 0 -470 -11 -827 -30 -922 -51 -24 -5 -127
-12 -229 -15 -253 -9 -511 -27 -532 -38 -17 -8 -88 -14 -468 -38 -96 -6 -200
-18 -231 -26 -31 -7 -146 -18 -255 -24 -213 -10 -367 -27 -398 -43 -10 -5
-105 -13 -210 -18 -208 -9 -354 -24 -401 -41 -16 -6 -138 -16 -270 -24 -149
-8 -280 -21 -345 -33 -57 -11 -165 -23 -240 -26 -190 -8 -366 -24 -430 -40
-30 -8 -156 -19 -280 -24 -259 -13 -314 -18 -390 -36 -30 -8 -152 -19 -270
-25 -127 -6 -266 -20 -340 -33 -105 -18 -163 -22 -360 -22 -231 0 -236 0 -313
28 -43 15 -87 27 -99 27 -11 0 -46 17 -77 38 -51 34 -74 55 -157 146 -15 17
-35 57 -45 89 -10 33 -25 67 -34 77 -9 10 -22 56 -30 108 -7 49 -20 104 -29
121 -10 19 -21 77 -27 142 -10 117 -19 169 -42 234 -8 22 -17 67 -21 100 -4
33 -21 93 -37 133 -16 41 -29 81 -29 90 0 9 -7 28 -15 42 -8 14 -26 50 -41 80
-14 30 -34 64 -44 75 -10 11 -21 30 -24 42 -4 11 -18 28 -31 37 -14 9 -25 22
-25 29 0 7 -21 30 -46 51 -43 36 -52 39 -118 42 -39 2 -84 -1 -101 -6z m-620
-590 c9 -15 -37 -79 -113 -157 -39 -39 -78 -84 -86 -100 -8 -15 -38 -53 -66
-83 -27 -30 -53 -64 -56 -75 -4 -11 -21 -34 -38 -51 -17 -17 -46 -51 -63 -76
-18 -25 -61 -72 -95 -106 -35 -34 -98 -95 -140 -137 -88 -86 -164 -176 -173
-205 -4 -11 -13 -20 -20 -20 -8 0 -21 -10 -29 -22 -9 -13 -25 -34 -36 -48 -67
-81 -89 -113 -95 -139 -3 -16 -17 -36 -30 -45 -13 -9 -26 -25 -30 -36 -4 -11
-17 -31 -30 -44 -13 -14 -27 -37 -31 -53 -4 -15 -17 -39 -29 -53 -13 -14 -29
-45 -35 -70 -7 -24 -20 -50 -30 -57 -9 -7 -23 -32 -30 -57 -7 -25 -23 -60 -36
-78 -13 -17 -24 -45 -24 -60 0 -16 -13 -53 -29 -83 -16 -30 -32 -74 -36 -97
-3 -24 -17 -65 -30 -93 -14 -27 -27 -77 -31 -110 -3 -33 -17 -92 -30 -132 -13
-39 -24 -86 -24 -105 -1 -52 -17 -111 -35 -124 -9 -7 -23 -40 -31 -74 -8 -34
-23 -73 -34 -87 -10 -13 -24 -50 -31 -81 -6 -31 -22 -77 -34 -102 -12 -25 -26
-65 -30 -90 -4 -25 -16 -59 -26 -76 -10 -17 -25 -62 -33 -101 -9 -39 -24 -89
-36 -110 -11 -21 -23 -61 -26 -88 -4 -28 -16 -68 -27 -90 -11 -22 -26 -76 -33
-121 -6 -44 -21 -100 -32 -125 -11 -24 -25 -85 -31 -135 -6 -51 -20 -112 -31
-137 -11 -25 -24 -89 -31 -148 -6 -57 -21 -136 -35 -176 -14 -41 -24 -95 -24
-126 0 -73 -18 -200 -36 -262 -9 -31 -23 -167 -34 -355 -19 -295 -28 -382 -44
-408 -11 -18 -40 -15 -65 7 -19 17 -45 29 -93 44 -27 9 -31 79 -24 371 7 279
17 398 41 476 8 25 19 113 24 195 7 100 18 172 31 215 12 36 25 111 31 167 5
55 20 135 34 177 14 42 25 90 25 107 0 41 18 118 36 151 8 15 22 69 30 119 8
50 23 107 33 128 11 20 24 62 30 93 5 32 19 74 30 96 11 21 25 67 31 102 6 35
20 76 31 91 10 15 25 56 33 92 7 36 22 80 33 99 12 18 24 49 28 68 4 19 18 53
31 75 12 22 28 63 35 90 7 28 20 61 29 75 10 14 23 44 29 66 6 23 18 47 26 54
8 7 21 34 29 61 8 26 26 67 39 91 14 24 28 57 32 75 3 17 17 44 30 59 13 15
28 46 34 69 6 23 19 49 30 59 11 10 23 31 26 47 4 15 20 45 36 65 16 20 29 43
29 50 0 7 11 25 24 41 13 15 28 45 35 65 7 20 19 42 28 50 9 7 23 29 32 48 9
19 24 46 34 60 54 76 69 100 93 145 55 107 75 140 94 160 25 24 62 77 89 125
10 19 31 46 45 59 14 14 26 29 26 34 0 9 35 56 77 103 13 14 30 39 39 57 9 18
28 44 41 59 38 40 85 93 118 133 41 49 345 352 393 393 22 17 44 32 49 32 6 0
18 9 29 21 10 12 37 30 59 42 22 11 46 28 53 38 14 20 47 25 57 9z m-2268
-5514 c66 -33 112 -100 97 -141 -8 -19 -50 -26 -114 -17 l-55 7 -9 58 c-6 41
-5 71 3 99 11 36 14 39 29 25 9 -8 31 -22 49 -31z m9723 -1726 c179 -6 361
-15 405 -21 151 -19 350 -38 405 -39 30 0 96 -10 145 -21 50 -11 176 -29 280
-39 105 -10 212 -25 238 -34 27 -8 119 -21 205 -27 94 -7 195 -20 252 -34 60
-15 154 -28 257 -35 89 -6 181 -17 204 -25 23 -8 108 -20 188 -25 142 -10 223
-20 326 -40 28 -6 125 -17 217 -25 113 -10 183 -21 217 -35 27 -10 90 -24 138
-30 48 -6 104 -19 123 -29 20 -10 75 -24 124 -30 48 -7 104 -21 124 -31 20
-11 71 -24 112 -31 41 -6 103 -22 137 -35 34 -12 88 -28 120 -33 31 -6 78 -22
103 -35 25 -12 63 -26 84 -29 21 -3 48 -15 60 -26 12 -10 41 -25 66 -31 25 -7
63 -23 85 -35 22 -13 60 -29 85 -35 25 -7 52 -18 60 -25 8 -7 39 -22 69 -34
29 -11 61 -27 70 -35 9 -8 36 -19 60 -26 25 -6 69 -25 99 -41 30 -16 60 -29
67 -29 7 0 23 -9 37 -19 13 -11 50 -26 82 -34 32 -9 66 -23 75 -31 9 -9 37
-23 61 -31 25 -9 55 -23 68 -31 13 -9 47 -24 75 -33 29 -10 70 -28 92 -40 22
-11 45 -21 51 -21 6 0 27 -10 46 -23 18 -13 56 -29 83 -36 28 -7 67 -23 87
-36 20 -13 49 -27 65 -31 15 -3 46 -17 68 -29 22 -13 57 -26 78 -30 20 -4 48
-16 61 -26 13 -10 48 -24 77 -30 30 -6 70 -21 89 -34 19 -13 53 -27 75 -31 52
-9 175 -72 198 -101 10 -13 24 -23 32 -23 7 0 31 -15 54 -32 22 -18 74 -60
116 -93 224 -176 217 -167 229 -294 5 -49 10 -58 61 -110 101 -102 189 -196
270 -286 44 -49 93 -103 110 -120 16 -16 50 -57 76 -90 26 -33 58 -71 71 -85
36 -37 142 -162 159 -186 22 -34 111 -151 147 -196 17 -22 32 -46 32 -53 0 -6
13 -36 28 -66 16 -30 32 -72 35 -94 4 -21 15 -51 26 -66 11 -15 27 -53 35 -86
8 -32 26 -85 40 -118 14 -33 26 -71 26 -84 0 -13 11 -47 24 -75 13 -28 29 -78
36 -111 6 -33 19 -80 30 -105 10 -25 21 -72 25 -105 4 -33 18 -94 30 -136 13
-42 26 -107 30 -145 9 -103 25 -203 41 -259 32 -116 52 -752 35 -1155 -14
-339 -26 -492 -46 -580 -8 -36 -18 -142 -23 -236 -6 -134 -12 -178 -25 -197
-9 -15 -24 -71 -32 -126 -9 -59 -24 -118 -37 -143 -21 -39 -23 -57 -24 -208
-2 -179 -15 -324 -39 -410 -8 -30 -21 -118 -30 -195 -9 -77 -23 -167 -31 -200
-8 -33 -19 -91 -24 -129 -7 -54 -14 -74 -33 -92 -31 -29 -32 -39 -46 -409 -6
-154 -15 -295 -20 -312 -5 -18 -15 -110 -21 -205 -6 -95 -22 -272 -36 -393
-31 -285 -41 -657 -25 -937 7 -114 17 -234 22 -265 5 -32 16 -134 24 -228 9
-96 25 -200 36 -238 18 -61 22 -124 35 -530 7 -254 18 -478 24 -498 5 -20 10
-52 10 -71 0 -19 9 -64 20 -99 20 -61 23 -65 80 -96 32 -18 73 -33 90 -33 37
0 104 32 142 68 31 29 26 31 113 -49 56 -52 133 -69 199 -44 52 20 110 80 176
180 108 165 141 200 200 209 24 4 60 17 80 29 33 21 45 22 270 22 205 0 240
-2 275 -18 22 -10 70 -25 107 -32 87 -19 183 -73 245 -138 28 -28 81 -74 118
-101 49 -35 72 -60 86 -91 10 -24 25 -45 33 -48 8 -3 24 -32 36 -64 12 -32 26
-63 31 -69 10 -12 55 -224 70 -334 14 -96 5 -350 -15 -410 -8 -25 -20 -97 -26
-160 -8 -72 -21 -136 -35 -170 -12 -30 -26 -77 -30 -105 -3 -27 -15 -65 -26
-84 -11 -18 -25 -56 -31 -85 -6 -28 -24 -75 -39 -105 -16 -30 -29 -61 -29 -70
0 -9 -11 -33 -26 -54 -14 -21 -32 -56 -40 -79 -8 -23 -21 -49 -29 -58 -8 -9
-21 -34 -29 -55 -12 -36 -68 -128 -101 -165 -7 -8 -16 -26 -20 -40 -4 -14 -20
-42 -36 -62 -16 -20 -29 -41 -29 -46 0 -4 -13 -21 -30 -37 -16 -16 -30 -32
-30 -37 0 -4 -21 -35 -47 -68 -27 -34 -58 -75 -71 -93 -13 -18 -45 -57 -72
-87 -27 -30 -89 -102 -139 -160 -121 -143 -340 -356 -474 -463 -15 -12 -43
-35 -61 -52 -80 -72 -143 -120 -245 -187 -120 -78 -143 -90 -222 -110 -116
-30 -113 -35 -102 202 16 357 1 2392 -18 2482 -11 46 -12 47 -72 67 -33 12
-75 21 -92 21 -36 0 -125 -28 -125 -39 0 -5 -12 -21 -26 -37 -22 -23 -28 -42
-35 -108 -4 -44 -8 -588 -8 -1209 0 -1154 -2 -1252 -26 -1417 -8 -52 -23 -169
-34 -260 -11 -91 -27 -185 -36 -210 -9 -25 -23 -87 -30 -138 -8 -50 -22 -107
-31 -125 -10 -17 -23 -61 -31 -96 -7 -35 -22 -78 -32 -95 -10 -17 -22 -47 -26
-66 -8 -43 -68 -184 -109 -260 -8 -14 -21 -41 -30 -60 -9 -19 -31 -62 -50 -95
-19 -33 -46 -83 -59 -111 -14 -28 -30 -55 -36 -58 -6 -4 -18 -23 -26 -42 -8
-20 -24 -47 -35 -62 -40 -52 -100 -147 -100 -159 0 -7 -11 -20 -25 -29 -13 -9
-27 -24 -30 -33 -7 -24 -130 -188 -238 -320 -28 -35 -59 -73 -67 -85 -21 -30
-65 -82 -129 -152 -31 -34 -76 -86 -100 -116 -62 -78 -254 -266 -391 -384 -63
-54 -126 -109 -140 -122 -14 -13 -63 -52 -110 -87 -47 -35 -99 -75 -116 -90
-18 -14 -58 -42 -90 -63 -33 -21 -69 -45 -81 -53 -11 -8 -52 -35 -90 -60 -103
-68 -106 -70 -180 -121 -37 -25 -81 -52 -98 -59 -16 -7 -43 -24 -58 -36 -16
-13 -36 -23 -46 -23 -9 0 -37 -13 -62 -28 -24 -16 -59 -33 -77 -40 -18 -6 -45
-20 -60 -30 -15 -11 -38 -23 -52 -27 -14 -4 -41 -17 -60 -29 -33 -20 -66 -34
-214 -90 -38 -15 -80 -35 -94 -46 -13 -11 -36 -20 -51 -20 -14 0 -53 -14 -86
-30 -33 -16 -67 -30 -75 -30 -8 0 -42 -13 -76 -29 -33 -16 -84 -34 -113 -40
-28 -6 -70 -20 -92 -31 -22 -12 -65 -26 -96 -31 -31 -6 -67 -18 -80 -26 -13
-9 -61 -26 -106 -39 -45 -12 -105 -29 -133 -37 -44 -13 -67 -13 -180 -1 -265
29 -476 43 -722 49 -139 3 -274 10 -300 15 -83 17 -336 31 -747 40 -220 5
-528 15 -685 22 -382 17 -2097 18 -2445 0 -137 -7 -443 -17 -680 -22 -236 -6
-500 -17 -585 -25 -176 -17 -387 -31 -705 -45 -121 -6 -251 -15 -290 -20 -98
-12 -299 -28 -505 -40 -96 -5 -191 -14 -210 -19 -47 -13 -198 -29 -400 -41
-91 -5 -192 -17 -225 -25 -33 -8 -130 -19 -215 -25 -167 -11 -287 -25 -362
-42 -36 -7 -63 -6 -115 6 -37 8 -144 20 -238 26 -194 11 -238 17 -315 36 -30
7 -125 20 -211 28 -86 8 -174 22 -195 30 -35 13 -103 23 -272 41 -30 3 -75 14
-101 25 -27 10 -91 23 -144 29 -53 6 -120 20 -149 31 -29 10 -84 24 -123 30
-38 6 -99 22 -135 34 -36 13 -90 27 -120 31 -30 4 -71 16 -91 26 -20 10 -68
25 -107 33 -39 8 -84 22 -101 30 -16 9 -62 23 -102 31 -39 8 -83 24 -98 34
-14 10 -52 24 -83 30 -31 7 -62 18 -68 26 -6 7 -34 19 -63 25 -29 7 -72 23
-96 36 -24 13 -62 29 -85 35 -22 6 -57 21 -76 34 -19 13 -55 28 -79 34 -24 5
-56 18 -70 29 -14 10 -43 24 -64 31 -21 7 -50 23 -65 35 -15 13 -44 28 -64 35
-20 7 -42 19 -49 27 -6 8 -30 23 -53 34 -22 11 -68 36 -101 55 -33 19 -80 44
-105 56 -25 12 -59 34 -76 48 -18 14 -55 40 -84 56 -29 17 -66 42 -84 56 -17
14 -44 34 -61 43 -69 38 -196 137 -314 241 -37 33 -87 76 -111 95 -51 40 -235
224 -295 296 -22 26 -63 74 -92 105 -28 32 -59 71 -68 88 -8 17 -20 31 -25 31
-5 0 -21 17 -35 37 -14 21 -50 74 -80 118 -29 44 -65 94 -79 111 -14 18 -26
35 -26 38 0 7 -59 98 -90 138 -11 15 -28 44 -36 65 -9 21 -24 49 -34 63 -9 14
-22 40 -28 58 -6 19 -23 47 -37 64 -14 16 -25 35 -25 41 0 7 -12 34 -26 61
-14 26 -32 67 -40 89 -8 23 -21 48 -29 57 -13 14 -33 62 -90 218 -13 35 -28
69 -34 76 -6 7 -18 43 -26 81 -9 37 -24 84 -34 104 -10 20 -24 63 -31 95 -7
33 -20 79 -31 102 -10 24 -23 72 -29 106 -6 35 -22 99 -35 143 -13 44 -31 128
-39 187 -9 58 -23 126 -31 150 -7 24 -19 97 -25 163 -7 66 -21 167 -31 225
-13 66 -24 186 -29 320 -5 118 -14 267 -21 330 -21 217 9 1140 46 1422 14 103
25 227 25 276 0 103 -14 131 -84 163 -74 34 -168 16 -227 -42 -33 -33 -38 -45
-48 -120 -7 -46 -19 -111 -27 -144 -7 -33 -21 -190 -29 -350 -8 -159 -21 -342
-27 -405 -17 -152 -17 -879 0 -1010 6 -52 19 -209 27 -349 9 -139 19 -261 24
-270 12 -23 30 -130 41 -254 6 -59 13 -114 16 -122 3 -8 -6 -26 -20 -40 -24
-24 -29 -25 -153 -25 -180 1 -391 24 -439 48 -22 11 -62 25 -91 31 -28 7 -59
21 -69 32 -9 10 -36 24 -58 30 -23 6 -49 18 -59 27 -10 9 -33 25 -52 37 -75
46 -149 110 -208 182 -34 41 -64 80 -66 87 -2 6 -16 25 -30 43 -57 70 -72 94
-92 137 -11 25 -24 48 -30 52 -6 4 -22 30 -35 59 -12 29 -27 56 -33 59 -5 3
-17 28 -27 54 -9 26 -25 56 -35 67 -10 11 -22 39 -27 63 -6 24 -21 60 -35 80
-14 20 -28 51 -32 68 -3 18 -15 40 -25 49 -11 10 -24 34 -31 54 -6 20 -20 45
-30 56 -10 12 -24 36 -30 55 -7 19 -22 49 -34 65 -12 17 -28 48 -35 70 -7 22
-22 52 -32 66 -11 14 -24 44 -29 67 -5 22 -20 58 -34 78 -14 20 -25 44 -25 54
0 9 -11 38 -25 64 -13 25 -31 76 -40 111 -8 36 -22 76 -30 89 -9 13 -22 60
-30 104 -7 45 -23 111 -35 148 -11 37 -25 114 -30 173 -5 58 -16 131 -25 161
-26 95 -39 392 -26 597 6 99 16 194 22 209 5 16 17 83 26 149 8 69 25 146 39
180 13 33 26 80 30 105 3 25 17 61 29 80 13 19 26 50 30 68 4 18 17 45 29 60
13 15 28 42 34 60 17 49 45 84 192 236 36 38 79 75 95 83 17 9 41 24 54 34 13
11 42 24 64 30 22 6 52 20 67 31 64 47 414 48 478 1 15 -10 43 -25 62 -33 19
-7 48 -24 63 -37 23 -19 40 -23 91 -23 59 0 64 2 97 38 20 20 43 49 52 65 14
22 25 27 56 27 46 0 99 -17 126 -40 11 -10 43 -25 72 -34 28 -10 57 -24 64
-32 7 -8 28 -22 47 -29 18 -8 47 -26 64 -40 16 -14 36 -25 44 -25 8 0 23 -9
33 -19 11 -11 35 -27 53 -37 18 -9 41 -24 51 -32 10 -9 33 -25 51 -37 84 -52
136 -87 136 -94 0 -8 112 -61 130 -61 33 0 117 39 146 67 38 38 48 81 39 178
l-7 73 54 35 c73 46 84 75 71 177 -6 48 -18 88 -31 106 -11 16 -25 53 -31 83
-7 30 -20 69 -31 86 -10 17 -22 51 -26 75 -3 25 -17 63 -29 85 -13 22 -28 67
-35 100 -7 33 -21 72 -31 86 -10 14 -23 48 -29 75 -6 27 -20 69 -31 93 -10 24
-26 71 -35 104 -8 32 -24 75 -34 95 -11 19 -24 60 -31 91 -6 31 -20 68 -30 83
-11 14 -24 49 -29 77 -5 28 -18 63 -29 79 -11 15 -25 54 -30 87 -6 33 -20 72
-31 87 -11 15 -24 48 -30 74 -6 26 -21 70 -35 98 -13 28 -27 69 -31 91 -3 22
-17 63 -30 91 -13 28 -28 75 -34 104 -6 30 -17 64 -25 76 -8 13 -26 66 -40
119 -13 52 -29 104 -35 115 -6 11 -15 54 -20 97 -6 43 -17 98 -25 123 -25 78
-35 179 -34 380 0 194 3 220 33 357 9 40 20 112 25 160 5 48 18 108 29 133 11
25 25 79 32 120 7 41 21 89 31 106 10 17 25 60 32 95 8 35 24 82 35 104 12 23
26 62 31 88 5 26 16 56 25 66 10 11 24 45 33 78 8 32 24 73 35 92 12 18 25 54
30 79 4 25 16 55 27 66 10 12 26 43 35 70 9 27 23 58 33 68 11 12 16 37 17 81
1 57 -2 67 -34 107 -19 25 -40 50 -47 55 -7 6 -19 27 -28 48 -18 43 -22 34 60
152 22 32 49 72 60 90 11 18 38 58 60 90 22 32 48 74 59 94 10 20 29 49 42 64
13 16 24 34 24 41 0 7 9 21 21 32 12 10 30 38 41 61 10 22 28 49 39 59 10 9
19 23 19 30 0 7 11 26 25 42 13 16 34 49 45 73 20 43 48 87 90 141 11 15 26
42 32 60 6 18 17 42 25 53 19 28 16 59 -11 113 -50 97 -116 130 -222 111 -32
-5 -72 -19 -87 -30 -30 -22 -57 -19 -57 5 0 8 9 18 20 21 11 3 23 17 26 31 3
13 11 24 17 24 14 0 444 428 472 470 13 19 46 59 74 89 28 29 51 59 51 66 0
12 21 41 94 131 15 18 26 36 26 41 0 6 14 29 31 53 17 23 36 57 42 74 5 17 21
44 34 59 12 16 23 34 23 41 0 7 11 29 25 49 13 20 29 56 35 79 7 24 19 51 27
60 30 33 66 178 68 268 1 58 6 95 18 116 9 18 21 53 27 79 6 25 19 58 29 73
11 15 24 50 30 77 5 28 31 88 56 134 42 75 48 95 59 190 8 58 21 124 30 146
10 22 24 86 32 143 8 57 21 116 29 132 8 16 22 71 30 123 8 52 24 115 34 138
10 24 24 78 31 119 7 41 20 91 30 110 10 19 23 54 29 77 6 23 19 49 27 58 9 9
23 41 31 73 8 31 25 75 37 97 13 22 27 51 31 65 14 47 85 187 104 204 11 10
22 30 26 44 3 15 15 36 25 47 11 11 26 37 34 57 9 20 21 40 27 44 6 3 18 23
28 43 16 36 36 65 94 135 15 19 34 50 42 70 8 20 19 36 24 36 5 0 30 26 55 58
52 63 96 116 141 170 26 30 73 72 280 247 69 59 102 83 132 99 18 9 36 22 40
30 7 12 30 26 132 81 20 11 48 28 61 38 14 10 43 22 65 28 21 6 50 19 63 29
13 10 44 26 70 34 26 9 69 27 96 41 27 14 56 25 64 25 9 0 35 12 59 26 24 14
71 30 105 35 34 6 81 19 106 31 25 11 82 26 126 34 45 7 97 18 116 23 19 6 60
17 90 26 30 8 67 15 82 15 15 0 51 9 80 20 29 12 106 28 171 36 65 8 135 21
155 29 51 19 77 24 184 35 52 5 112 17 133 26 21 9 109 24 194 34 86 11 176
26 201 34 25 9 108 22 185 31 77 8 161 21 187 29 26 8 123 22 215 31 92 9 179
20 193 25 39 15 218 40 290 40 36 0 97 7 135 16 140 30 167 33 337 44 95 6
216 19 270 30 58 12 182 23 315 30 120 6 224 13 232 16 42 14 303 37 581 49
173 8 383 21 465 31 83 9 269 19 415 23 412 12 2048 12 2410 1z m12220 -3581
c0 -24 -23 -21 -28 4 -2 10 3 17 12 17 10 0 16 -9 16 -21z m-27427 -4511 c20
-40 39 -93 42 -118 4 -25 17 -69 31 -98 13 -29 28 -81 34 -114 7 -34 20 -78
30 -97 9 -20 23 -60 29 -90 6 -30 20 -68 30 -85 11 -17 27 -60 36 -96 9 -35
25 -76 34 -90 10 -14 21 -44 24 -68 3 -24 17 -60 30 -80 14 -20 29 -55 32 -77
4 -22 16 -55 26 -73 10 -18 26 -58 35 -90 9 -31 22 -64 29 -72 7 -8 21 -41 30
-72 9 -31 25 -69 37 -83 12 -15 25 -48 30 -73 4 -25 19 -62 32 -82 14 -19 30
-56 37 -82 6 -26 18 -53 25 -59 8 -6 21 -35 30 -65 8 -29 23 -63 33 -76 9 -13
25 -44 35 -70 9 -25 24 -52 31 -58 8 -7 20 -30 25 -51 6 -22 21 -55 34 -74 13
-19 27 -51 31 -72 3 -21 16 -48 27 -60 11 -12 17 -27 13 -33 -9 -15 -63 -3
-95 22 -42 32 -93 66 -132 88 -20 11 -41 26 -45 34 -4 7 -21 20 -38 29 -45 23
-335 328 -335 352 0 7 -9 20 -21 31 -11 10 -27 34 -35 52 -7 19 -25 47 -38 63
-13 16 -27 42 -31 58 -3 16 -15 37 -25 46 -11 10 -26 41 -35 71 -8 29 -26 75
-40 102 -14 28 -25 58 -25 69 0 10 -11 38 -24 63 -15 29 -29 83 -39 151 -9 58
-23 125 -32 150 -37 99 -29 619 11 715 8 19 19 72 25 117 10 81 17 117 24 117
2 0 19 -33 38 -72z m15922 -12628 c940 -18 1377 -31 1535 -46 85 -7 326 -20
535 -28 209 -8 412 -20 450 -26 146 -23 228 -30 480 -40 143 -5 278 -15 300
-20 71 -18 196 -30 405 -40 113 -6 232 -15 265 -20 175 -31 244 -39 384 -45
85 -4 178 -13 205 -20 66 -17 196 -33 318 -41 133 -8 133 -7 125 -171 -4 -78
-14 -159 -27 -208 -12 -47 -25 -146 -31 -239 -6 -93 -19 -191 -31 -235 -12
-47 -23 -136 -29 -231 -10 -174 -14 -213 -34 -285 -8 -28 -21 -144 -29 -258
-15 -199 -17 -211 -44 -255 -21 -34 -40 -51 -69 -62 -22 -8 -54 -27 -72 -42
-18 -16 -37 -28 -43 -28 -5 0 -24 -11 -40 -26 -17 -14 -44 -28 -60 -31 -16 -3
-34 -13 -41 -23 -7 -9 -23 -23 -37 -30 -14 -7 -38 -24 -54 -37 -15 -13 -44
-30 -62 -38 -19 -8 -34 -19 -34 -24 0 -6 -15 -18 -32 -27 -18 -9 -42 -26 -54
-38 -11 -12 -42 -37 -68 -56 -81 -61 -150 -120 -160 -138 -5 -9 -17 -24 -27
-32 -28 -24 -70 -139 -71 -196 0 -28 10 -82 22 -120 20 -59 32 -77 94 -135 53
-51 81 -70 116 -79 25 -6 55 -18 68 -26 13 -9 53 -22 89 -29 36 -8 70 -18 76
-24 6 -6 9 -75 8 -168 -1 -124 2 -163 14 -183 8 -14 24 -44 35 -68 27 -54 95
-130 174 -195 37 -30 30 -51 -29 -97 -59 -46 -135 -117 -135 -126 0 -4 -13
-28 -30 -54 -51 -79 -63 -261 -24 -345 20 -42 65 -102 91 -120 37 -26 46 -73
34 -193 -5 -59 -13 -141 -16 -182 -4 -41 -17 -122 -30 -180 -13 -58 -26 -152
-30 -210 -4 -58 -15 -127 -25 -155 -10 -27 -25 -116 -34 -196 -9 -81 -23 -163
-31 -182 -8 -20 -22 -92 -30 -159 -7 -68 -21 -143 -30 -168 -9 -25 -23 -94
-31 -154 -8 -60 -23 -129 -34 -154 -12 -27 -23 -79 -26 -131 -4 -47 -12 -100
-20 -118 -20 -51 -50 -60 -244 -67 -96 -4 -202 -13 -235 -21 -75 -17 -252 -33
-460 -41 -88 -3 -191 -10 -230 -15 -38 -5 -119 -16 -180 -23 -60 -8 -198 -18
-305 -21 -107 -4 -247 -13 -310 -21 -229 -29 -279 -34 -539 -44 -145 -6 -285
-16 -310 -21 -91 -19 -211 -28 -546 -39 -187 -6 -362 -15 -390 -20 -81 -16
-265 -26 -895 -50 -157 -7 -332 -15 -390 -19 -327 -25 -499 -31 -1130 -41
-433 -7 -710 -15 -735 -22 -56 -15 -1904 -15 -1960 0 -24 6 -288 15 -655 22
-624 12 -755 17 -1095 44 -104 8 -316 20 -470 26 -154 6 -302 15 -330 20 -109
20 -249 32 -449 39 l-208 7 -24 27 c-13 16 -24 35 -24 43 0 8 -11 40 -24 72
-13 31 -29 91 -35 131 -7 41 -21 95 -32 120 -10 24 -24 76 -30 115 -6 39 -20
88 -30 108 -11 21 -26 71 -34 112 -7 41 -21 85 -29 98 -8 13 -20 57 -26 98 -7
41 -21 95 -32 120 -11 25 -26 82 -34 127 -8 45 -23 102 -34 127 -11 24 -24 76
-29 114 -5 38 -17 84 -27 103 -22 42 -57 216 -56 284 1 78 22 217 37 245 8 14
35 66 60 116 45 91 45 91 45 197 l0 107 38 24 c59 38 146 136 178 200 26 52
29 70 29 150 0 83 -3 99 -34 166 -32 70 -58 107 -105 148 -10 9 -28 27 -40 40
-11 13 -35 30 -53 39 -73 34 -22 101 96 127 45 10 86 27 103 41 15 13 38 27
50 31 37 11 105 87 113 124 4 19 17 51 28 71 l21 37 -32 111 c-17 62 -41 126
-54 143 -49 66 -205 221 -240 239 -21 11 -38 24 -38 30 0 5 -21 19 -46 29 -25
11 -57 29 -71 40 -14 11 -33 20 -43 20 -9 0 -33 11 -52 24 -20 13 -59 31 -87
39 -62 18 -116 53 -130 85 -6 13 -11 47 -11 75 0 29 -9 78 -20 110 -12 34 -24
107 -30 184 -6 71 -22 173 -35 228 -14 55 -29 156 -34 225 -5 77 -16 148 -29
185 -11 34 -25 115 -31 185 -6 70 -19 151 -30 182 -10 30 -24 113 -31 184 -6
72 -20 152 -31 184 -12 34 -24 110 -31 199 -14 167 -16 162 86 180 35 6 77 18
95 27 17 9 80 20 139 25 59 5 141 20 182 33 41 13 118 27 170 31 52 4 138 18
190 31 52 14 142 29 201 33 61 5 119 15 136 25 18 9 82 20 150 27 133 12 191
21 278 43 33 8 130 22 215 30 85 8 180 22 210 31 30 9 116 20 190 26 74 5 158
14 185 20 28 6 78 17 112 24 35 8 125 17 200 20 76 4 161 13 188 20 79 20 187
34 353 45 84 5 203 19 265 30 61 10 202 24 312 30 112 6 244 19 300 30 68 13
186 23 365 30 146 6 292 16 325 21 157 23 376 40 650 49 165 5 336 14 380 19
176 21 460 31 1100 41 369 6 693 12 720 14 137 7 819 5 1290 -4z m5300 -1827
c9 -10 29 -33 46 -52 27 -29 30 -38 24 -70 -9 -48 -18 -57 -70 -70 -107 -27
-132 -4 -116 109 5 39 15 78 21 86 17 20 77 18 95 -3z m337 -543 c48 -14 90
-49 133 -115 32 -47 35 -59 35 -123 0 -54 -6 -82 -25 -124 -14 -29 -25 -62
-25 -73 -1 -11 -8 -38 -16 -60 -37 -97 -43 -156 -44 -425 0 -146 -4 -280 -9
-298 -6 -18 -22 -46 -38 -62 -48 -50 -63 -70 -73 -96 -13 -34 -13 -86 1 -121
15 -39 12 -300 -6 -447 -14 -109 -18 -122 -53 -175 -51 -77 -102 -120 -195
-165 l-78 -38 -122 4 c-102 3 -129 7 -162 25 -22 12 -63 29 -92 38 -28 9 -57
23 -64 31 -6 8 -31 19 -55 25 -75 19 -84 62 -18 82 16 5 54 19 84 32 30 13 75
26 99 30 64 11 170 65 219 112 23 22 42 44 42 48 0 5 12 24 28 44 24 32 27 44
27 113 0 70 -2 78 -27 102 -16 14 -28 29 -28 35 0 12 -127 77 -168 86 -17 3
-46 17 -65 29 -18 12 -48 28 -67 35 -19 6 -51 22 -70 34 -19 12 -44 27 -55 33
-37 20 -65 73 -65 125 0 58 8 64 105 73 39 4 80 14 92 22 12 7 39 14 59 14 21
0 64 7 96 16 54 15 60 20 89 70 43 75 47 112 18 170 -24 48 -107 124 -136 124
-9 0 -39 13 -67 29 -69 39 -219 55 -441 46 -182 -8 -204 -2 -191 50 8 32 33
56 137 138 100 78 137 103 185 127 23 11 44 26 47 34 3 8 24 20 46 27 22 7 50
21 61 31 11 11 37 26 58 35 20 8 50 26 65 39 16 13 36 24 45 24 9 0 33 12 53
26 21 14 68 34 106 44 82 21 166 54 213 83 63 39 232 59 312 37z m-14736 -148
c4 -20 8 -77 8 -125 1 -112 -6 -120 -112 -115 -79 4 -96 14 -109 66 -14 59 55
169 131 208 51 27 72 18 82 -34z m-69 -608 c29 -3 62 -13 75 -23 13 -10 50
-24 83 -31 33 -8 78 -23 100 -36 22 -12 56 -25 75 -29 19 -4 55 -18 80 -30 25
-12 62 -25 82 -29 21 -4 50 -17 65 -30 15 -13 45 -29 65 -35 39 -13 83 -44
161 -113 54 -49 62 -86 25 -112 -26 -18 -157 -22 -223 -6 -22 5 -102 13 -177
16 l-137 7 -88 -33 c-142 -55 -226 -139 -238 -239 -8 -74 8 -164 37 -202 51
-68 113 -118 158 -129 25 -6 60 -20 77 -30 18 -11 61 -24 95 -30 35 -7 82 -20
104 -31 23 -10 60 -21 83 -25 23 -4 60 -19 84 -33 23 -15 56 -33 74 -40 39
-16 46 -32 27 -60 -14 -20 -23 -21 -117 -19 -61 1 -110 -3 -122 -9 -11 -7 -55
-47 -99 -91 -86 -88 -102 -126 -87 -209 12 -61 31 -85 111 -138 83 -55 89 -75
31 -105 -65 -33 -86 -72 -86 -160 0 -41 6 -97 12 -125 11 -46 10 -51 -8 -67
-28 -24 -112 -33 -294 -32 -192 1 -293 15 -366 49 -30 13 -64 25 -76 25 -11 0
-41 16 -65 35 -23 18 -56 44 -72 57 -46 36 -153 144 -172 174 -28 41 -25 175
4 237 13 26 27 73 33 105 6 31 19 69 29 83 10 15 25 52 34 84 8 31 21 64 29
73 8 10 20 35 27 57 7 22 21 51 31 64 11 13 24 42 30 65 6 22 24 62 40 87 16
25 29 49 29 53 0 4 11 22 24 39 35 45 50 147 42 275 -5 85 -10 111 -31 147
-14 24 -30 72 -36 107 -6 34 -14 67 -20 73 -16 16 -10 135 11 204 15 53 29 76
69 115 28 28 63 51 82 56 33 8 190 5 296 -6z m7823 -4664 c28 -15 66 -87 79
-147 6 -28 20 -69 31 -90 11 -22 25 -66 30 -99 6 -32 22 -81 35 -109 29 -59
46 -197 26 -210 -7 -4 -44 -11 -83 -16 -39 -5 -81 -16 -92 -24 -81 -60 -89
-64 -153 -71 -40 -4 -92 -2 -133 5 -65 12 -68 14 -163 105 -53 52 -97 100 -97
107 0 8 -2 115 -3 239 -4 306 -7 302 177 311 214 10 327 9 346 -1z"/>
<path d="M21197 30159 c-38 -4 -86 -15 -108 -23 -22 -9 -80 -23 -130 -31 -57
-9 -99 -21 -115 -34 -14 -11 -42 -23 -63 -27 -20 -4 -49 -16 -66 -29 -16 -12
-46 -27 -66 -34 -20 -6 -47 -21 -60 -32 -13 -11 -52 -42 -87 -69 -63 -50 -151
-140 -189 -196 -28 -39 -42 -144 -32 -229 8 -61 13 -72 59 -125 27 -31 62 -62
77 -69 96 -38 255 -53 348 -31 22 4 119 14 215 20 112 8 197 19 235 31 92 29
301 42 555 36 219 -5 227 -6 312 -36 49 -17 101 -31 117 -31 16 0 42 -11 58
-24 15 -13 52 -28 81 -35 29 -6 70 -22 90 -36 20 -14 44 -25 52 -25 18 0 109
-55 156 -94 18 -14 39 -26 47 -26 9 0 28 -11 44 -24 15 -13 42 -30 58 -39 17
-8 40 -27 52 -41 13 -14 29 -26 37 -26 8 0 49 -29 91 -65 42 -36 80 -65 84
-65 5 0 104 -94 220 -210 116 -115 221 -215 233 -221 70 -38 150 -24 208 36
27 28 34 44 38 88 6 74 -13 184 -43 248 -14 30 -25 63 -25 74 0 11 -13 47 -29
80 -16 33 -36 76 -45 95 -9 19 -23 46 -31 60 -8 14 -22 41 -30 60 -9 19 -30
58 -48 86 -17 28 -41 66 -52 84 -11 18 -32 47 -47 63 -16 17 -28 33 -28 37 0
4 -12 20 -27 37 -16 16 -64 69 -107 117 -43 48 -102 104 -130 125 -28 21 -71
57 -96 80 -24 22 -50 41 -56 41 -7 0 -26 11 -42 25 -17 14 -46 32 -65 40 -20
8 -38 19 -42 25 -3 6 -25 20 -48 31 -23 12 -51 29 -62 39 -11 9 -42 23 -70 29
-27 7 -59 20 -70 30 -11 10 -42 24 -70 30 -27 7 -64 21 -82 32 -17 11 -60 24
-95 30 -35 6 -88 21 -118 34 -31 13 -96 28 -148 34 -51 7 -112 18 -136 26 -24
8 -86 19 -137 25 -109 11 -473 11 -572 -1z"/>
<path d="M12345 29910 c-38 -4 -83 -13 -100 -19 -16 -6 -88 -20 -158 -30 -73
-11 -139 -26 -154 -36 -14 -9 -62 -23 -107 -31 -46 -8 -93 -23 -108 -34 -16
-11 -51 -25 -80 -30 -29 -6 -61 -19 -72 -29 -12 -11 -34 -23 -51 -27 -16 -3
-43 -17 -60 -29 -16 -12 -48 -28 -70 -35 -22 -7 -52 -23 -67 -36 -15 -12 -41
-25 -58 -29 -17 -4 -34 -13 -37 -21 -3 -8 -20 -22 -37 -31 -17 -8 -42 -25 -56
-38 -14 -12 -37 -29 -52 -36 -15 -8 -51 -35 -80 -60 -29 -26 -89 -78 -133
-116 -77 -67 -163 -158 -240 -253 -20 -25 -48 -56 -62 -70 -14 -14 -48 -60
-77 -103 -28 -44 -63 -98 -79 -120 -15 -23 -35 -55 -45 -71 -9 -16 -27 -41
-40 -57 -13 -16 -28 -45 -34 -66 -5 -20 -20 -51 -32 -68 -13 -16 -28 -50 -35
-74 -7 -24 -21 -56 -31 -70 -11 -14 -24 -52 -29 -85 -6 -32 -20 -72 -30 -90
-11 -17 -25 -63 -31 -101 -6 -39 -21 -104 -34 -145 -19 -61 -24 -102 -27 -220
-5 -266 -4 -281 35 -331 34 -42 130 -99 169 -99 55 0 166 87 242 190 17 22 47
61 68 86 20 25 37 48 37 52 0 4 22 31 50 60 27 28 55 63 62 76 18 33 115 160
156 203 17 18 32 38 32 43 0 5 24 37 53 71 28 33 59 71 67 84 20 30 120 143
144 164 10 9 26 24 35 35 9 10 22 24 29 30 7 6 21 19 30 30 25 28 37 38 73 69
119 99 195 157 206 157 7 0 27 13 45 28 18 16 48 34 67 41 19 6 42 18 50 25
22 20 148 86 164 86 6 0 41 14 76 30 35 17 95 35 135 41 39 6 96 19 126 29
114 38 441 36 594 -4 33 -9 109 -21 169 -27 60 -6 142 -21 181 -34 39 -13 103
-26 141 -30 39 -4 86 -14 105 -22 52 -22 152 -18 247 10 74 22 123 50 168 98
6 6 22 23 36 37 15 15 36 47 48 72 12 25 28 56 36 70 11 18 15 57 15 140 0
111 -1 116 -30 159 -17 24 -30 50 -30 58 0 16 -193 210 -237 238 -17 11 -63
41 -101 68 -38 26 -76 47 -84 47 -8 0 -34 13 -59 29 -24 16 -62 32 -83 36 -22
3 -60 17 -85 30 -27 13 -83 27 -133 34 -47 6 -113 21 -145 32 -51 19 -85 22
-293 24 -129 2 -266 0 -305 -5z"/>
<path d="M12555 26490 c-16 -4 -47 -14 -68 -23 -20 -9 -62 -21 -93 -26 -30 -6
-67 -19 -80 -30 -14 -11 -42 -25 -62 -32 -20 -6 -46 -20 -57 -30 -11 -10 -34
-24 -51 -31 -32 -14 -57 -32 -162 -118 -37 -30 -96 -79 -132 -108 -36 -29 -81
-74 -100 -99 -19 -26 -63 -77 -97 -114 -35 -38 -63 -74 -63 -82 0 -7 -12 -24
-26 -38 -14 -13 -31 -38 -38 -54 -7 -17 -21 -38 -30 -47 -9 -9 -25 -36 -36
-60 -11 -24 -27 -54 -35 -68 -40 -71 -71 -154 -86 -230 -10 -47 -24 -104 -33
-127 -25 -67 -61 -560 -52 -718 16 -303 36 -502 54 -555 11 -30 24 -86 31
-125 6 -38 20 -90 30 -115 11 -25 30 -79 44 -120 42 -127 62 -174 84 -206 12
-17 25 -43 29 -59 4 -16 22 -49 41 -73 18 -24 33 -48 33 -52 0 -5 14 -24 30
-42 17 -18 42 -48 58 -65 15 -18 35 -41 45 -50 11 -10 43 -41 72 -70 29 -28
68 -59 86 -69 19 -9 47 -27 62 -40 16 -13 36 -24 44 -24 9 0 31 -9 50 -21 18
-11 61 -27 94 -35 33 -8 80 -25 103 -39 24 -14 52 -25 64 -25 12 0 56 -12 99
-26 101 -33 244 -45 418 -34 104 6 144 13 174 28 21 11 66 26 99 33 35 6 69
20 78 30 10 11 35 24 57 30 23 6 55 22 72 35 18 13 36 24 41 24 10 0 100 63
152 107 50 42 113 108 147 154 17 22 42 55 58 73 15 19 34 51 43 72 9 22 24
50 34 64 9 14 21 36 25 50 4 14 20 46 36 71 16 25 29 57 29 71 0 14 11 47 25
73 14 26 32 81 40 122 8 42 19 80 24 87 13 16 29 105 41 227 6 59 17 131 24
160 32 126 29 399 -8 624 -8 50 -18 128 -22 175 -3 47 -19 126 -34 175 -15 50
-30 114 -34 143 -4 29 -18 73 -31 99 -14 25 -25 54 -25 63 0 9 -11 38 -25 63
-13 25 -29 66 -35 89 -7 24 -25 63 -41 87 -16 25 -29 50 -29 56 0 7 -13 29
-30 50 -16 21 -30 42 -30 46 0 5 -16 30 -35 56 -19 27 -47 65 -62 86 -94 129
-335 387 -362 387 -5 0 -20 11 -33 24 -13 13 -39 29 -59 35 -21 7 -47 21 -60
32 -12 11 -34 22 -48 25 -14 4 -65 19 -112 35 -77 26 -99 29 -205 28 -66 -1
-132 -4 -149 -9z m-376 -669 c14 -12 38 -29 54 -39 15 -9 34 -36 43 -58 14
-36 66 -100 155 -191 59 -61 63 -328 7 -468 -11 -27 -24 -66 -30 -85 -6 -19
-18 -46 -28 -60 -10 -14 -30 -50 -44 -80 -14 -30 -36 -69 -49 -85 -50 -68
-292 -286 -333 -302 -11 -3 -33 -19 -51 -34 -23 -20 -51 -30 -103 -39 -104
-18 -181 2 -243 62 -24 24 -48 54 -52 68 -4 14 -18 41 -31 60 -15 23 -27 62
-34 109 -6 41 -17 94 -25 118 -19 56 -19 186 0 248 8 27 20 83 26 124 7 44 24
99 41 130 15 30 28 64 28 76 0 12 14 39 30 60 17 21 30 41 30 45 0 8 48 69 95
123 14 15 25 32 25 37 0 8 121 116 191 169 41 32 86 41 188 37 67 -3 89 -8
110 -25z"/>
<path d="M21335 26371 c-28 -5 -65 -16 -83 -25 -18 -9 -58 -21 -90 -27 -31 -6
-70 -19 -85 -30 -15 -11 -46 -27 -68 -34 -23 -8 -54 -26 -71 -40 -16 -14 -33
-25 -38 -25 -30 0 -300 -265 -300 -295 0 -6 -16 -34 -35 -61 -19 -27 -35 -53
-35 -58 0 -4 -11 -21 -25 -38 -14 -16 -28 -42 -31 -56 -4 -15 -17 -45 -30 -67
-12 -22 -26 -58 -29 -80 -4 -22 -20 -69 -35 -105 -16 -37 -33 -102 -39 -152
-6 -47 -21 -113 -32 -145 -49 -142 -49 -965 1 -1144 11 -41 26 -120 34 -176 8
-56 21 -116 30 -135 8 -18 22 -63 31 -99 8 -36 26 -91 40 -123 14 -31 25 -64
25 -74 0 -9 7 -30 16 -47 9 -16 30 -55 46 -85 68 -126 78 -143 114 -188 63
-77 176 -188 224 -218 130 -85 181 -105 315 -125 111 -18 142 -19 210 -10 44
6 122 16 174 21 54 6 109 19 131 30 21 11 60 24 87 30 26 6 61 20 76 31 15 11
47 27 70 35 23 8 51 23 62 33 11 10 32 25 46 32 95 51 290 229 341 312 16 26
33 47 36 47 11 1 142 194 142 209 0 6 14 26 30 44 17 19 30 41 30 50 0 8 13
40 29 70 16 30 32 70 36 89 4 18 16 48 27 66 11 18 26 59 34 93 8 33 23 77 33
98 11 21 25 78 32 127 6 49 20 112 30 139 29 76 42 299 35 585 -5 203 -9 258
-26 320 -11 41 -27 112 -35 157 -7 45 -23 100 -34 122 -12 22 -26 64 -32 93
-6 29 -21 69 -34 88 -13 19 -28 51 -34 71 -7 20 -21 45 -31 54 -11 10 -20 24
-20 30 0 7 -16 32 -35 56 -19 24 -35 50 -35 56 0 22 -259 274 -298 290 -20 8
-46 23 -57 34 -11 10 -40 25 -63 33 -24 9 -54 24 -68 35 -13 11 -43 22 -66 26
-22 4 -73 19 -112 33 -67 24 -83 26 -291 28 -121 1 -243 -1 -270 -5z m182
-456 c40 -19 73 -39 73 -43 0 -5 13 -23 29 -40 36 -37 47 -101 44 -252 -4
-166 -19 -287 -42 -326 -11 -18 -25 -62 -31 -96 -6 -35 -19 -74 -29 -88 -10
-14 -23 -41 -30 -61 -6 -20 -23 -47 -36 -59 -14 -13 -25 -29 -25 -37 0 -19
-169 -212 -239 -272 -33 -29 -80 -59 -104 -67 -25 -8 -62 -24 -83 -35 -52 -26
-165 -26 -214 0 -19 10 -53 24 -75 31 -65 21 -157 96 -175 142 -7 18 -25 51
-39 72 -25 38 -26 44 -26 195 0 140 2 160 21 196 12 22 29 66 38 98 9 32 23
60 32 64 8 3 19 25 25 49 11 42 45 96 86 137 10 10 22 22 26 27 24 23 114 112
132 129 11 10 69 41 128 70 59 29 118 62 132 74 50 46 85 68 156 97 97 39 135
38 226 -5z"/>
<path d="M5564 23386 c-17 -7 -48 -34 -68 -60 -64 -77 -69 -159 -15 -226 62
-76 70 -86 94 -120 14 -19 37 -57 51 -85 14 -27 34 -66 45 -85 28 -51 21 -70
-36 -101 -27 -15 -68 -37 -90 -49 -22 -12 -55 -40 -72 -62 -29 -36 -33 -47
-33 -103 0 -62 15 -125 30 -125 4 0 27 -16 51 -36 42 -35 45 -36 115 -32 57 3
78 8 96 24 29 27 91 47 117 39 27 -8 69 -87 86 -160 8 -33 23 -85 33 -116 11
-30 23 -75 26 -100 13 -86 17 -98 44 -127 15 -17 32 -37 39 -45 14 -18 111
-31 165 -22 46 8 104 60 114 102 13 50 -3 239 -24 286 -11 25 -27 77 -36 117
-9 40 -25 89 -35 109 -10 20 -24 63 -31 95 -7 33 -21 72 -32 87 -11 15 -24 48
-29 73 -5 25 -20 63 -34 83 -14 21 -25 44 -25 52 0 8 -13 35 -29 60 -16 25
-32 57 -36 71 -4 14 -21 40 -36 58 -16 18 -29 39 -29 47 0 7 -11 27 -25 43
-14 17 -25 34 -25 39 0 8 -21 38 -107 156 -15 21 -34 43 -42 50 -7 7 -26 24
-41 40 -35 34 -126 46 -176 23z"/>
<path d="M28080 23166 c-42 -30 -78 -68 -133 -139 -12 -16 -34 -40 -48 -55
-14 -15 -31 -38 -38 -51 -7 -13 -34 -50 -59 -83 -26 -33 -55 -72 -64 -86 -10
-15 -24 -36 -33 -47 -22 -27 -76 -111 -100 -155 -11 -20 -39 -64 -63 -98 -24
-34 -50 -81 -57 -103 -8 -23 -26 -54 -40 -71 -14 -16 -25 -36 -25 -44 0 -8 -9
-32 -20 -54 -11 -22 -20 -54 -19 -72 0 -41 45 -125 80 -150 56 -42 158 -45
209 -6 34 27 110 129 110 149 0 9 13 36 30 60 16 24 30 49 30 56 0 6 11 25 25
41 13 16 33 50 44 74 20 46 62 88 89 88 9 0 28 -12 43 -26 14 -14 40 -33 57
-42 33 -18 171 -123 207 -157 12 -11 37 -29 55 -40 19 -11 43 -26 55 -32 11
-7 46 -13 77 -13 51 0 61 4 102 38 54 45 70 90 63 179 -5 68 -28 106 -82 139
-16 10 -58 40 -92 68 -34 28 -85 67 -114 86 -62 42 -149 119 -149 132 0 6 9
22 21 36 29 39 66 92 85 126 20 35 22 126 5 179 -11 32 -22 42 -67 64 -30 14
-57 29 -60 34 -13 21 -80 8 -124 -25z"/>
<path d="M18674 20881 c-22 -17 -45 -36 -52 -43 -7 -7 -83 -85 -170 -174 -86
-88 -184 -191 -217 -229 -128 -145 -195 -216 -370 -395 -99 -102 -214 -223
-255 -270 -41 -46 -93 -100 -115 -120 -22 -19 -55 -50 -73 -68 -28 -29 -36
-33 -65 -27 -30 7 -67 33 -128 91 -14 13 -29 24 -33 24 -5 0 -36 28 -71 63
-66 66 -106 100 -170 149 -22 16 -67 55 -100 86 -33 32 -77 69 -96 84 -20 15
-72 61 -115 102 -44 41 -90 85 -104 98 -14 12 -43 35 -65 49 -22 14 -49 36
-60 49 -11 12 -51 49 -90 82 -38 32 -108 95 -155 139 -154 144 -239 179 -310
129 -16 -11 -44 -27 -63 -35 -30 -12 -37 -21 -47 -66 -7 -28 -10 -73 -8 -101
5 -44 12 -56 59 -105 30 -30 70 -65 89 -78 19 -13 67 -53 105 -90 39 -36 99
-90 134 -118 35 -29 102 -87 150 -131 47 -43 97 -86 111 -95 14 -9 56 -47 95
-85 38 -38 94 -86 123 -108 29 -21 92 -75 140 -119 48 -44 100 -90 115 -102
16 -12 61 -52 100 -89 114 -107 212 -188 227 -188 5 0 23 -12 40 -27 28 -23
43 -27 116 -31 106 -6 144 2 183 36 45 39 431 427 496 497 30 33 94 103 142
155 48 52 164 174 257 270 94 96 198 206 231 243 33 38 101 111 150 163 107
111 136 154 143 212 4 34 0 50 -17 72 -11 16 -21 34 -21 39 0 6 -23 29 -51 51
-43 34 -58 40 -99 40 -37 0 -56 -6 -86 -29z"/>
<path d="M17674 12912 c-133 -98 -240 -242 -398 -538 -87 -162 -99 -191 -122
-295 -24 -108 -28 -116 -72 -163 -158 -164 -337 -255 -419 -212 -67 35 -114
113 -127 212 -5 33 -1 46 15 65 12 13 27 36 35 52 8 15 17 27 20 27 3 0 16
-25 30 -55 27 -59 46 -75 92 -75 37 0 60 26 107 120 51 102 53 164 7 232 -27
39 -42 50 -92 66 -32 11 -69 30 -81 41 -27 25 -48 21 -101 -21 -88 -69 -212
-233 -187 -249 6 -3 2 -25 -11 -58 -22 -57 -25 -75 -10 -66 6 3 10 -1 10 -9 0
-20 -17 -30 -23 -14 -3 8 -6 6 -6 -5 -1 -17 -37 -37 -67 -37 -43 0 -102 108
-128 231 -4 20 -16 29 -53 41 -67 21 -72 18 -60 -48 8 -50 7 -58 -16 -92 -14
-20 -37 -62 -51 -92 -28 -60 -153 -231 -173 -238 -9 -2 -13 8 -13 32 0 20 -5
36 -11 36 -6 0 -9 -9 -6 -19 3 -14 1 -18 -9 -14 -10 4 -14 25 -14 74 0 73 5
84 20 47 16 -40 11 156 -6 265 -11 72 -13 102 -5 105 6 2 11 9 11 15 -1 13
-66 87 -77 87 -4 0 -17 10 -29 21 l-23 22 -5 -24 c-3 -13 -8 -46 -11 -74 -4
-27 -23 -115 -42 -195 -34 -141 -36 -146 -81 -194 -157 -164 -337 -255 -419
-212 -67 35 -114 113 -127 212 -5 33 -1 46 15 65 12 13 27 36 35 52 8 15 17
27 20 27 3 0 16 -25 30 -55 27 -59 46 -75 92 -75 37 0 60 26 107 120 51 102
53 164 7 232 -27 39 -42 50 -92 66 -32 11 -69 30 -81 41 -27 25 -48 21 -101
-21 -88 -69 -212 -233 -187 -249 6 -3 2 -25 -11 -58 -23 -59 -25 -75 -8 -65 8
5 9 0 6 -14 -4 -12 -2 -22 3 -22 12 0 11 -42 -2 -97 -8 -29 -8 -47 -2 -52 13
-8 33 -46 33 -62 0 -8 -5 -8 -17 2 -10 7 -2 -4 17 -25 53 -57 106 -83 202
-100 161 -28 284 16 433 155 l65 62 -6 -55 c-5 -42 -2 -64 11 -91 9 -21 21
-37 25 -37 4 0 31 -23 59 -50 l53 -51 61 7 c34 3 72 12 83 20 22 13 85 119 99
164 4 14 26 54 50 90 23 36 60 100 81 143 21 42 42 77 45 77 4 0 21 -22 37
-49 52 -83 135 -134 200 -121 21 4 46 11 56 15 15 7 18 5 13 -8 -13 -34 -19
-87 -10 -87 10 0 33 -43 33 -62 0 -6 -7 -5 -17 3 -10 7 -2 -4 17 -25 53 -57
106 -83 202 -100 119 -21 218 -1 324 66 53 34 164 137 173 161 4 10 7 -33 6
-95 0 -121 3 -133 67 -226 44 -64 88 -82 202 -82 52 0 107 5 122 10 44 17 212
188 265 270 l49 75 1 -60 c1 -122 55 -195 146 -195 58 0 99 18 155 69 45 42
104 139 127 212 l12 36 117 6 c64 4 132 11 150 16 17 5 32 6 32 1 0 -5 -11
-55 -25 -112 -74 -303 -93 -675 -40 -777 18 -37 54 -50 67 -27 5 10 23 33 40
52 25 29 32 47 39 111 10 88 31 160 65 220 13 23 24 52 24 65 0 13 8 35 17 48
10 14 28 46 40 72 12 25 37 71 57 101 19 31 92 169 161 306 78 156 131 251
140 251 38 0 -2 -299 -46 -346 -11 -12 -33 -25 -47 -29 -53 -13 -113 -56 -128
-92 -13 -31 -13 -38 0 -58 9 -13 31 -36 50 -50 19 -15 36 -36 38 -47 2 -12 11
-26 21 -32 16 -9 27 -2 73 49 33 35 71 94 95 142 43 89 54 99 120 108 61 9
152 37 162 49 5 6 6 -10 2 -36 -3 -27 -2 -48 3 -48 9 0 32 -43 32 -62 0 -6 -7
-5 -17 3 -10 7 -2 -4 17 -25 53 -57 106 -83 202 -100 160 -28 283 16 429 153
55 51 72 73 72 93 0 15 5 33 13 39 11 9 13 -10 12 -108 -1 -129 11 -184 45
-208 24 -17 79 -20 107 -5 27 14 83 112 128 221 21 52 66 157 99 234 34 77 66
154 72 170 7 17 21 41 32 55 l20 25 -8 -70 c-19 -171 -5 -222 70 -254 50 -21
86 -12 124 33 30 35 22 48 -11 17 -13 -13 -32 -21 -43 -19 -16 3 -19 17 -24
118 -4 68 -13 130 -22 153 -15 35 -18 37 -61 37 -45 0 -46 -1 -89 -67 -45 -68
-122 -218 -147 -283 -21 -57 -100 -129 -100 -92 0 18 39 120 67 177 17 33 36
78 43 100 7 22 19 49 26 60 8 11 14 38 14 61 0 35 -8 52 -45 98 -46 56 -60 64
-124 69 l-35 2 -43 -106 c-42 -103 -83 -262 -83 -321 0 -35 -69 -112 -177
-199 -120 -96 -239 -137 -300 -105 -67 35 -114 113 -127 212 -5 33 -1 46 15
65 12 13 27 36 35 52 8 15 17 27 20 27 3 0 16 -25 30 -55 27 -59 46 -75 92
-75 37 0 60 26 107 120 51 102 53 164 7 232 -27 39 -42 50 -92 66 -32 11 -69
30 -81 41 -27 25 -48 21 -101 -21 -88 -69 -212 -233 -187 -249 6 -3 2 -25 -11
-58 -23 -59 -25 -75 -9 -65 7 4 10 1 7 -7 -3 -8 -11 -13 -17 -11 -6 1 -11 -4
-11 -11 0 -21 -72 -49 -131 -51 l-54 -1 -6 80 c-10 140 -19 176 -46 201 -18
17 -38 24 -66 24 -61 0 -115 -62 -188 -216 -79 -167 -104 -206 -132 -202 -37
5 -32 52 23 223 27 87 53 182 56 210 7 56 -15 158 -42 200 -16 25 -73 65 -92
65 -6 0 -20 -19 -30 -43 -26 -59 -127 -345 -152 -433 l-21 -72 -62 -5 c-50 -5
-192 -3 -218 2 -3 0 -9 49 -12 109 -8 173 -46 247 -169 329 -45 30 -73 27
-141 -14 -53 -31 -70 -64 -69 -129 1 -52 6 -72 29 -126 15 -37 15 -37 -19 -85
-20 -26 -46 -68 -58 -93 -80 -158 -186 -269 -333 -348 -52 -27 -91 -15 -113
37 -27 62 -29 231 -6 338 25 110 51 164 149 307 99 144 217 342 247 414 26 63
42 157 32 197 -7 27 -52 55 -89 55 -13 0 -42 -13 -63 -28z m86 -84 c-1 -68
-105 -284 -249 -515 -113 -183 -146 -175 -77 17 34 93 42 114 114 275 53 121
149 233 200 235 6 0 12 -6 12 -12z m374 -499 c55 -48 75 -105 77 -217 1 -59
-2 -79 -18 -100 -41 -55 -87 -42 -148 43 -59 84 -75 122 -75 186 0 46 4 55 39
90 21 22 48 39 58 39 11 0 41 -18 67 -41z m-2926 -112 c4 -20 -41 -123 -65
-149 -21 -23 -52 -22 -82 2 -21 18 -22 23 -12 48 14 34 77 101 106 113 29 12
49 6 53 -14z m1590 0 c4 -20 -41 -123 -65 -149 -21 -23 -52 -22 -82 2 -21 18
-22 23 -12 48 14 34 77 101 106 113 29 12 49 6 53 -14z m3110 0 c4 -20 -41
-123 -65 -149 -21 -23 -52 -22 -82 2 -21 18 -22 23 -12 48 14 34 77 101 106
113 29 12 49 6 53 -14z m-2788 -321 c0 -3 -4 -8 -10 -11 -5 -3 -10 -1 -10 4 0
6 5 11 10 11 6 0 10 -2 10 -4z m1033 -23 c7 -12 -62 -147 -93 -185 -24 -28
-30 -31 -44 -19 -33 28 -6 131 48 186 24 24 79 35 89 18z m906 -105 c-17 -33
-50 -68 -65 -68 -39 0 -24 56 19 75 49 21 60 19 46 -7z"/>
<path d="M14190 12853 c-103 -18 -320 -63 -343 -72 -16 -6 -39 -11 -52 -11
-33 0 -56 -64 -63 -172 -8 -138 23 -162 157 -122 29 8 55 13 58 11 4 -5 -37
-136 -169 -536 -56 -169 -88 -251 -103 -266 -13 -11 -58 -31 -101 -43 -137
-40 -162 -55 -184 -108 -16 -36 -19 -58 -14 -96 6 -44 11 -52 38 -63 36 -15
159 -4 243 21 29 9 57 13 63 9 6 -4 26 7 46 24 19 17 43 31 54 31 30 0 54 12
40 20 -7 5 25 27 82 57 173 91 265 160 409 303 193 193 298 358 375 592 21 62
28 103 28 163 0 91 -13 124 -69 174 -45 39 -86 56 -180 76 -69 14 -253 19
-315 8z m330 -350 l55 -18 -3 -44 c-10 -151 -197 -392 -450 -580 -134 -99
-161 -115 -209 -125 -27 -6 -34 -3 -48 18 -18 27 -15 43 35 196 12 36 48 151
82 255 84 264 92 282 136 296 100 33 306 34 402 2z"/>
<path d="M14751 11964 c0 -11 3 -14 6 -6 3 7 2 16 -1 19 -3 4 -6 -2 -5 -13z"/>
</g>
</svg>
